<svg aria-hidden="true" style="position: absolute; width: 0; height: 0; overflow: hidden;" version="1.1" xmlns="http://www.w3.org/2000/svg" xmlns:xlink="http://www.w3.org/1999/xlink">
<defs>
<symbol id="off" viewBox="0 0 32 32">
<path fill="#fff" style="fill: var(--color1, #fff); stroke: var(--color2, #4a90e2)" stroke="#4a90e2" stroke-linejoin="miter" stroke-linecap="butt" stroke-miterlimit="4" stroke-width="3.2" d="M8 4.8h16c1.767 0 3.2 1.433 3.2 3.2v16c0 1.767-1.433 3.2-3.2 3.2h-16c-1.767 0-3.2-1.433-3.2-3.2v-16c0-1.767 1.433-3.2 3.2-3.2z"></path>
</symbol>
<symbol id="off-disabled" viewBox="0 0 32 32">
<path fill="#fff" style="fill: var(--color1, #fff); stroke: var(--color3, #9b9b9b)" stroke="#9b9b9b" stroke-linejoin="miter" stroke-linecap="butt" stroke-miterlimit="4" stroke-width="3.2" d="M8 4.8h16c1.767 0 3.2 1.433 3.2 3.2v16c0 1.767-1.433 3.2-3.2 3.2h-16c-1.767 0-3.2-1.433-3.2-3.2v-16c0-1.767 1.433-3.2 3.2-3.2z"></path>
</symbol>
<symbol id="on" viewBox="0 0 32 32">
<path stroke-linejoin="miter" stroke-linecap="butt" stroke-miterlimit="4" stroke-width="3.2" d="M8 14.4l6.4 6.4 9.6-11.2"></path>
</symbol>
<symbol id="on-disabled" viewBox="0 0 32 32">
<path fill="#9b9b9b" style="fill: var(--color3, #9b9b9b)" d="M8 3.2h16c2.651 0 4.8 2.149 4.8 4.8v16c0 2.651-2.149 4.8-4.8 4.8h-16c-2.651 0-4.8-2.149-4.8-4.8v-16c0-2.651 2.149-4.8 4.8-4.8z"></path>
<path fill="none" stroke="#fff" style="stroke: var(--color1, #fff)" stroke-linejoin="miter" stroke-linecap="butt" stroke-miterlimit="4" stroke-width="4.8" d="M8 14.4l6.4 6.4 9.6-11.2"></path>
</symbol>
<symbol id="on-grey" viewBox="0 0 32 32">
<path fill="none" stroke="#808080" style="stroke: var(--color4, #808080)" stroke-linejoin="miter" stroke-linecap="butt" stroke-miterlimit="4" stroke-width="3.2" d="M8 14.4l6.4 6.4 9.6-11.2"></path>
</symbol>
<symbol id="tilde" viewBox="0 0 32 32">
<path d="M9.772 14.224c-1.948 0-3.088 1.193-4.976 3.639l-2.278-1.571c1.109-1.619 1.859-2.584 3.178-3.591 1.194-0.901 2.728-1.811 4.467-1.811 2.786 0 4.285 1.27 6.595 3.058 2.278 1.763 3.867 2.518 5.306 2.518 0.63 0 1.752-0.33 2.488-0.923 0.983-0.685 1.679-1.583 2.728-3.274l2.308 1.787c-1.229 1.871-2.038 2.776-3.028 3.639-1.529 1.367-2.938 2.14-4.886 2.14-5.25-0-7.568-5.612-11.901-5.612z"></path>
</symbol>
<symbol id="menu-icon" viewBox="0 0 40 40">
<path fill-rule="evenodd" clip-rule="evenodd" d="M8 14.6667V12H32V14.6667H8ZM8 21.3333H32V18.6667H8V21.3333ZM8 28H32V25.3333H8V28Z" />
</symbol>
<symbol id="menu-close" viewBox="0 0 40 40">
<path d="M29.6667 12.88L27.7867 11L20.3333 18.4533L12.88 11L11 12.88L18.4533 20.3333L11 27.7867L12.88 29.6667L20.3333 22.2133L27.7867 29.6667L29.6667 27.7867L22.2133 20.3333L29.6667 12.88Z" />
</symbol>
<symbol id="arrow-right" viewBox="0 0 96 96" xmlns="http://www.w3.org/2000/svg"><path d="M69.8437,43.3876,33.8422,13.3863a6.0035,6.0035,0,0,0-7.6878,9.223l30.47,25.39-30.47,25.39a6.0035,6.0035,0,0,0,7.6878,9.2231L69.8437,52.6106a6.0091,6.0091,0,0,0,0-9.223Z"/>  </symbol>
<symbol id="arrow-left" viewBox="0 0 96 96" xmlns="http://www.w3.org/2000/svg"><path d="M39.3756,48.0022l30.47-25.39a6.0035,6.0035,0,0,0-7.6878-9.223L26.1563,43.3906a6.0092,6.0092,0,0,0,0,9.2231L62.1578,82.615a6.0035,6.0035,0,0,0,7.6878-9.2231Z"/></symbol>
</defs>
</svg>
