<svg xmlns="http://www.w3.org/2000/svg" width="50" height="20" viewBox="-0.5 -0.303 500 500" fill="#f07523"><path d="M129.9 189.5c-26 0-41.2 15.92-66.4 48.56L33.1 217.1c14.8-21.6 24.8-34.48 42.4-47.92 15.928-12.027 36.4-24.16 59.601-24.16 37.175 0 57.177 16.953 88 40.8 30.4 23.52 51.601 33.601 70.8 33.601 8.4 0 23.382-4.405 33.201-12.32 13.12-9.136 22.4-21.12 36.4-43.681l30.8 23.84c-16.4 24.96-27.2 37.04-40.4 48.56-20.4 18.24-39.2 28.561-65.2 28.561-70.05-.001-100.988-74.881-158.802-74.881z"/></svg>